<?xml version="1.0" encoding="UTF-8"?><svg xmlns="http://www.w3.org/2000/svg" xmlns:xlink="http://www.w3.org/1999/xlink" fill-opacity="1" color-rendering="auto" color-interpolation="auto" text-rendering="auto" stroke="black" stroke-linecap="square" width="740" stroke-miterlimit="10" shape-rendering="auto" stroke-opacity="1" fill="black" stroke-dasharray="none" font-weight="normal" stroke-width="1" height="996" font-family="'Dialog'" font-style="normal" stroke-linejoin="miter" font-size="12px" stroke-dashoffset="0" image-rendering="auto">
  <!--Generated by ySVG 2.5-->
  <defs id="genericDefs"/>
  <g>
    <defs id="defs1">
      <clipPath clipPathUnits="userSpaceOnUse" id="clipPath1">
        <path d="M0 0 L740 0 L740 996 L0 996 L0 0 Z"/>
      </clipPath>
      <clipPath clipPathUnits="userSpaceOnUse" id="clipPath2">
        <path d="M64 10 L804 10 L804 1006 L64 1006 L64 10 Z"/>
      </clipPath>
    </defs>
    <g fill="white" text-rendering="geometricPrecision" shape-rendering="geometricPrecision" transform="translate(-64,-10)" stroke="white">
      <rect x="64" width="740" height="996" y="10" clip-path="url(#clipPath2)" stroke="none"/>
    </g>
    <g fill="rgb(255,204,0)" text-rendering="geometricPrecision" shape-rendering="geometricPrecision" transform="matrix(1,0,0,1,-64,-10)" stroke="rgb(255,204,0)">
      <circle r="57.5" clip-path="url(#clipPath2)" cx="136.5" cy="82.5" stroke="none"/>
    </g>
    <g text-rendering="geometricPrecision" stroke-miterlimit="1.45" shape-rendering="geometricPrecision" transform="matrix(1,0,0,1,-64,-10)" stroke-linecap="butt">
      <circle fill="none" r="57.5" clip-path="url(#clipPath2)" cx="136.5" cy="82.5"/>
      <text x="121.8428" xml:space="preserve" y="86.6543" clip-path="url(#clipPath2)" font-family="sans-serif" stroke="none">Start</text>
    </g>
    <g fill="rgb(255,204,0)" text-rendering="geometricPrecision" shape-rendering="geometricPrecision" transform="matrix(1,0,0,1,-64,-10)" stroke="rgb(255,204,0)">
      <circle r="57.5" clip-path="url(#clipPath2)" cx="136.5" cy="254.5" stroke="none"/>
    </g>
    <g text-rendering="geometricPrecision" stroke-miterlimit="1.45" shape-rendering="geometricPrecision" transform="matrix(1,0,0,1,-64,-10)" stroke-linecap="butt">
      <circle fill="none" r="57.5" clip-path="url(#clipPath2)" cx="136.5" cy="254.5"/>
      <text x="113.5928" xml:space="preserve" y="258.6543" clip-path="url(#clipPath2)" font-family="sans-serif" stroke="none">Waiting</text>
    </g>
    <g fill="rgb(255,204,0)" text-rendering="geometricPrecision" shape-rendering="geometricPrecision" transform="matrix(1,0,0,1,-64,-10)" stroke="rgb(255,204,0)">
      <circle r="57.5" clip-path="url(#clipPath2)" cx="367.5" cy="254.5" stroke="none"/>
    </g>
    <g text-rendering="geometricPrecision" stroke-miterlimit="1.45" shape-rendering="geometricPrecision" transform="matrix(1,0,0,1,-64,-10)" stroke-linecap="butt">
      <circle fill="none" r="57.5" clip-path="url(#clipPath2)" cx="367.5" cy="254.5"/>
      <text x="337.0781" xml:space="preserve" y="258.6543" clip-path="url(#clipPath2)" font-family="sans-serif" stroke="none">Pomodoro</text>
    </g>
    <g fill="rgb(255,204,0)" text-rendering="geometricPrecision" shape-rendering="geometricPrecision" transform="matrix(1,0,0,1,-64,-10)" stroke="rgb(255,204,0)">
      <circle r="57.5" clip-path="url(#clipPath2)" cx="547" cy="254.5" stroke="none"/>
    </g>
    <g text-rendering="geometricPrecision" stroke-miterlimit="1.45" shape-rendering="geometricPrecision" transform="matrix(1,0,0,1,-64,-10)" stroke-linecap="butt">
      <circle fill="none" r="57.5" clip-path="url(#clipPath2)" cx="547" cy="254.5"/>
      <text x="504.9619" xml:space="preserve" y="258.6543" clip-path="url(#clipPath2)" font-family="sans-serif" stroke="none">Pomdoro over</text>
    </g>
    <g fill="rgb(255,204,0)" text-rendering="geometricPrecision" shape-rendering="geometricPrecision" transform="matrix(1,0,0,1,-64,-10)" stroke="rgb(255,204,0)">
      <circle r="57.5" clip-path="url(#clipPath2)" cx="726.5" cy="254.5" stroke="none"/>
    </g>
    <g text-rendering="geometricPrecision" stroke-miterlimit="1.45" shape-rendering="geometricPrecision" transform="matrix(1,0,0,1,-64,-10)" stroke-linecap="butt">
      <circle fill="none" r="57.5" clip-path="url(#clipPath2)" cx="726.5" cy="254.5"/>
      <text x="701.3428" xml:space="preserve" y="258.6543" clip-path="url(#clipPath2)" font-family="sans-serif" stroke="none">Warning</text>
    </g>
    <g fill="rgb(255,204,0)" text-rendering="geometricPrecision" shape-rendering="geometricPrecision" transform="matrix(1,0,0,1,-64,-10)" stroke="rgb(255,204,0)">
      <circle r="57.5" clip-path="url(#clipPath2)" cx="726.5" cy="933.5" stroke="none"/>
    </g>
    <g text-rendering="geometricPrecision" stroke-miterlimit="1.45" shape-rendering="geometricPrecision" transform="matrix(1,0,0,1,-64,-10)" stroke-linecap="butt">
      <circle fill="none" r="57.5" clip-path="url(#clipPath2)" cx="726.5" cy="933.5"/>
      <text x="697.3584" xml:space="preserve" y="937.6543" clip-path="url(#clipPath2)" font-family="sans-serif" stroke="none">Reminder</text>
    </g>
    <g fill="rgb(255,204,0)" text-rendering="geometricPrecision" shape-rendering="geometricPrecision" transform="matrix(1,0,0,1,-64,-10)" stroke="rgb(255,204,0)">
      <circle r="57.5" clip-path="url(#clipPath2)" cx="726.5" cy="733.5" stroke="none"/>
    </g>
    <g text-rendering="geometricPrecision" stroke-miterlimit="1.45" shape-rendering="geometricPrecision" transform="matrix(1,0,0,1,-64,-10)" stroke-linecap="butt">
      <circle fill="none" r="57.5" clip-path="url(#clipPath2)" cx="726.5" cy="733.5"/>
      <text x="701.5244" xml:space="preserve" y="737.6543" clip-path="url(#clipPath2)" font-family="sans-serif" stroke="none">Time Up</text>
    </g>
    <g fill="rgb(255,204,0)" text-rendering="geometricPrecision" shape-rendering="geometricPrecision" transform="matrix(1,0,0,1,-64,-10)" stroke="rgb(255,204,0)">
      <circle r="15" clip-path="url(#clipPath2)" cx="547" cy="450.5" stroke="none"/>
    </g>
    <g text-rendering="geometricPrecision" stroke-miterlimit="1.45" shape-rendering="geometricPrecision" transform="matrix(1,0,0,1,-64,-10)" stroke-linecap="butt">
      <circle fill="none" r="15" clip-path="url(#clipPath2)" cx="547" cy="450.5"/>
    </g>
    <g fill="rgb(255,204,0)" text-rendering="geometricPrecision" shape-rendering="geometricPrecision" transform="matrix(1,0,0,1,-64,-10)" stroke="rgb(255,204,0)">
      <path d="M485 567 L547 505 L609 567 L547 629 Z" fill-rule="evenodd" clip-path="url(#clipPath2)" stroke="none"/>
    </g>
    <g text-rendering="geometricPrecision" stroke-miterlimit="1.45" shape-rendering="geometricPrecision" transform="matrix(1,0,0,1,-64,-10)" stroke-linecap="butt">
      <path fill="none" d="M485 567 L547 505 L609 567 L547 629 Z" fill-rule="evenodd" clip-path="url(#clipPath2)"/>
      <text x="517.4131" xml:space="preserve" y="571.1543" clip-path="url(#clipPath2)" font-family="sans-serif" stroke="none">count &lt; 4</text>
    </g>
    <g fill="rgb(255,204,0)" text-rendering="geometricPrecision" shape-rendering="geometricPrecision" transform="matrix(1,0,0,1,-64,-10)" stroke="rgb(255,204,0)">
      <circle r="57.5" clip-path="url(#clipPath2)" cx="726.5" cy="567" stroke="none"/>
    </g>
    <g text-rendering="geometricPrecision" stroke-miterlimit="1.45" shape-rendering="geometricPrecision" transform="matrix(1,0,0,1,-64,-10)" stroke-linecap="butt">
      <circle fill="none" r="57.5" clip-path="url(#clipPath2)" cx="726.5" cy="567"/>
      <text x="692.542" xml:space="preserve" y="571.1543" clip-path="url(#clipPath2)" font-family="sans-serif" stroke="none">Long Break</text>
    </g>
    <g fill="rgb(255,204,0)" text-rendering="geometricPrecision" shape-rendering="geometricPrecision" transform="matrix(1,0,0,1,-64,-10)" stroke="rgb(255,204,0)">
      <circle r="57.5" clip-path="url(#clipPath2)" cx="547" cy="733.5" stroke="none"/>
    </g>
    <g text-rendering="geometricPrecision" stroke-miterlimit="1.45" shape-rendering="geometricPrecision" transform="matrix(1,0,0,1,-64,-10)" stroke-linecap="butt">
      <circle fill="none" r="57.5" clip-path="url(#clipPath2)" cx="547" cy="733.5"/>
      <text x="511.5654" xml:space="preserve" y="737.6543" clip-path="url(#clipPath2)" font-family="sans-serif" stroke="none">Short Break</text>
      <path fill="none" d="M136.5 140 L136.5 189" clip-path="url(#clipPath2)"/>
      <path d="M136.5 197 L141.5 185 L136.5 188 L131.5 185 Z" clip-path="url(#clipPath2)" stroke="none"/>
      <path fill="none" d="M194 254.5 L302 254.5" clip-path="url(#clipPath2)"/>
      <path d="M310 254.5 L298 249.5 L301 254.5 L298 259.5 Z" clip-path="url(#clipPath2)" stroke="none"/>
      <text x="201" xml:space="preserve" y="228.6543" clip-path="url(#clipPath2)" font-family="sans-serif" stroke="none">person detected</text>
      <path fill="none" d="M425 254.5 L481.5 254.5" clip-path="url(#clipPath2)"/>
      <path d="M489.5 254.5 L477.5 249.5 L480.5 254.5 L477.5 259.5 Z" clip-path="url(#clipPath2)" stroke="none"/>
      <text x="432.8068" xml:space="preserve" y="228.6543" clip-path="url(#clipPath2)" font-family="sans-serif" stroke="none">25 mins</text>
      <path fill="none" d="M604.5 254.5 L661 254.5" clip-path="url(#clipPath2)"/>
      <path d="M669 254.5 L657 249.5 L660 254.5 L657 259.5 Z" clip-path="url(#clipPath2)" stroke="none"/>
      <text x="611.5" xml:space="preserve" y="228.6543" clip-path="url(#clipPath2)" font-family="sans-serif" stroke="none">1 min</text>
      <path fill="none" d="M777.5108 228.0344 L778.326 226.9444 L781.4566 221.7912 L784.0884 216.3278 L786.1901 210.5856 L787.7302 204.5959 L788.6773 198.3903 L789 192 L788.6773 185.6097 L787.7302 179.4041 L786.1901 173.4144 L784.0884 167.6722 L781.4566 162.2088 L778.326 157.0556 L774.728 152.2442 L770.6942 147.8058 L766.2558 143.772 L761.4443 140.174 L756.2912 137.0434 L750.8278 134.4116 L745.0856 132.3099 L739.0959 130.7698 L732.8903 129.8227 L726.5 129.5 L720.1097 129.8227 L713.9041 130.7698 L707.9144 132.3099 L702.1722 134.4116 L696.7088 137.0434 L691.5557 140.174 L686.7442 143.772 L682.3058 147.8058 L678.272 152.2442 L674.674 157.0556 L671.5434 162.2088 L668.9116 167.6722 L666.8099 173.4144 L665.2698 179.4041 L664.3227 185.6097 L664 192 L664.3227 198.3903 L665.2698 204.5959 L666.8099 210.5856 L668.9116 216.3278 L671.2751 221.2343 L671.3286 221.3188" clip-path="url(#clipPath2)"/>
      <path d="M675.5419 228.1194 L673.4723 215.2852 L670.8019 220.4688 L664.9716 220.5519 Z" clip-path="url(#clipPath2)" stroke="none"/>
      <text x="713.4609" xml:space="preserve" y="166.4121" clip-path="url(#clipPath2)" font-family="sans-serif" stroke="none">1 min</text>
      <path fill="none" d="M669 933.5 L136.5 933.5 L136.5 320" clip-path="url(#clipPath2)"/>
      <path d="M136.5 312 L131.5 324 L136.5 321 L141.5 324 Z" clip-path="url(#clipPath2)" stroke="none"/>
      <text x="577.2461" xml:space="preserve" y="954.6543" clip-path="url(#clipPath2)" font-family="sans-serif" stroke="none">person leaves</text>
      <path fill="none" d="M685.0397 773.3408 L577.1667 877 L577.1667 934 L136.5 934 L136.5 320" clip-path="url(#clipPath2)"/>
      <path d="M136.5 312 L131.5 324 L136.5 321 L141.5 324 Z" clip-path="url(#clipPath2)" stroke="none"/>
      <text x="487.4807" xml:space="preserve" y="831.4019" clip-path="url(#clipPath2)" font-family="sans-serif" stroke="none">person leaves</text>
      <path fill="none" d="M726.5 791 L726.5 868" clip-path="url(#clipPath2)"/>
      <path d="M726.5 876 L731.5 864 L726.5 867 L721.5 864 Z" clip-path="url(#clipPath2)" stroke="none"/>
      <text x="679.4609" xml:space="preserve" y="837.6543" clip-path="url(#clipPath2)" font-family="sans-serif" stroke="none">5 min</text>
      <path fill="none" d="M726.5 312 L726.5 371.8503 L568.0665 441.2695" clip-path="url(#clipPath2)"/>
      <path d="M560.739 444.4801 L573.7369 444.2439 L568.9824 440.8682 L569.7236 435.0845 Z" clip-path="url(#clipPath2)" stroke="none"/>
      <text x="693.2177" xml:space="preserve" y="404.7196" clip-path="url(#clipPath2)" font-family="sans-serif" stroke="none">person leaves</text>
      <path fill="none" d="M547 312 L547 427.5" clip-path="url(#clipPath2)"/>
      <path d="M547 435.5 L552 423.5 L547 426.5 L542 423.5 Z" clip-path="url(#clipPath2)" stroke="none"/>
      <text x="444.123" xml:space="preserve" y="379.9043" clip-path="url(#clipPath2)" font-family="sans-serif" stroke="none">person leaves</text>
      <path fill="none" d="M547 465.5 L547 496.9998" clip-path="url(#clipPath2)"/>
      <path d="M547 504.9998 L552 492.9998 L547 495.9998 L542 492.9998 Z" clip-path="url(#clipPath2)" stroke="none"/>
      <path fill="none" d="M609.0099 567 L661 567" clip-path="url(#clipPath2)"/>
      <path d="M669 567 L657 562 L660 567 L657 572 Z" clip-path="url(#clipPath2)" stroke="none"/>
      <text x="616" xml:space="preserve" y="541.1543" clip-path="url(#clipPath2)" font-family="sans-serif" stroke="none">No</text>
      <path fill="none" d="M726.5 624.5 L726.5 668" clip-path="url(#clipPath2)"/>
      <path d="M726.5 676 L731.5 664 L726.5 667 L721.5 664 Z" clip-path="url(#clipPath2)" stroke="none"/>
      <text x="675.6436" xml:space="preserve" y="654.4043" clip-path="url(#clipPath2)" font-family="sans-serif" stroke="none">30 min</text>
      <path fill="none" d="M547 628.9904 L547 668" clip-path="url(#clipPath2)"/>
      <path d="M547 676 L552 664 L547 667 L542 664 Z" clip-path="url(#clipPath2)" stroke="none"/>
      <text x="506.5176" xml:space="preserve" y="656.6543" clip-path="url(#clipPath2)" font-family="sans-serif" stroke="none">Yes</text>
      <path fill="none" d="M604.5 733.5 L661 733.5" clip-path="url(#clipPath2)"/>
      <path d="M669 733.5 L657 728.5 L660 733.5 L657 738.5 Z" clip-path="url(#clipPath2)" stroke="none"/>
      <text x="619.7109" xml:space="preserve" y="767.6543" clip-path="url(#clipPath2)" font-family="sans-serif" stroke="none">5 min</text>
    </g>
  </g>
</svg>
